{"title":"The Muppets 2011 DvDScr XviD Feel-Free","uid":7043261,"size":1320769864,"categoryP":"video","categoryS":"movies","magnet":"?xt=urn:btih:02e92dfb704efb95c31c3936553331a4a7707efe&amp;dn=The+Muppets+2011+DvDScr+XviD+Feel-Free&amp;tr=udp%3A%2F%2Ftracker.openbittorrent.com%3A80&amp;tr=udp%3A%2F%2Fopen.demonii.com%3A1337&amp;tr=udp%3A%2F%2Ftracker.coppersurfer.tk%3A6969&amp;tr=udp%3A%2F%2Fexodus.desync.com%3A6969","seeders":1,"leechers":0,"uploader":".BONE.","files":7,"time":1329632727,"description":"Genre:Comedy | Drama | Family\nLanguage:English &lt;a href=&quot;\nhttp://www.imdb.com/title/tt1204342/&quot; rel=&quot;nofollow&quot; target=&quot;_NEW&quot;&gt;\nhttp://www.imdb.com/title/tt1204342/&lt;/a&gt;\nSource:INSPiRAL Thanks!\nEncoder:Tony\n\nFormat : AVI\nFormat/Info : Audio Video Interleave\nFile size : 1.23 GiB\nDuration : 1h 42mn\nOverall bit rate : 1 709 Kbps\n\n\nVideo\nID : 0\nFormat : MPEG-4 Visual\nFormat profile : Advanced Simple@L5\nFormat settings, BVOP : 1\nFormat settings, QPel : No\nFormat settings, GMC : No warppoints\nFormat settings, Matrix : Default (H.263)\nCodec ID : XVID\nCodec ID/Hint : XviD\nDuration : 1h 42mn\nBit rate : 1 508 Kbps\nWidth : 640 pixels\nHeight : 344 pixels\nDisplay aspect ratio : 1.860\nFrame rate : 23.976 fps\nColor space : YUV\nChroma subsampling : 4:2:0\nBit depth : 8 bits\nScan type : Progressive\nCompression mode : Lossy\nBits/(Pixel*Frame) : 0.286\nStream size : 1.08 GiB (88%)\nWriting library : XviD 1.2.1 (UTC 2008-12-04)\n\nAudio\nID : 1\nFormat : AC-3\nFormat/Info : Audio Coding 3\nMode extension : CM (complete main)\nCodec ID : 2000\nDuration : 1h 42mn\nBit rate mode : Constant\nBit rate : 192 Kbps\nChannel(s) : 2 channels\nChannel positions : Front: L R\nSampling rate : 48.0 KHz\nBit depth : 16 bits\nCompression mode : Lossy\nStream size : 141 MiB (11%)\nAlignment : Aligned on interleaves\nInterleave, duration : 42 ms (1.00 video frame)\nInterleave, preload duration : 512 ms\n\n\nPlot:\nWith the help of three fans, The Muppets must reunite to save their old theater from a greedy oil tycoon\n","torrent":{"xt":"urn:btih:02e92dfb704efb95c31c3936553331a4a7707efe","amp;dn":"The+Muppets+2011+DvDScr+XviD+Feel-Free","amp;tr":["udp%3A%2F%2Ftracker.openbittorrent.com%3A80","udp%3A%2F%2Fopen.demonii.com%3A1337","udp%3A%2F%2Ftracker.coppersurfer.tk%3A6969","udp%3A%2F%2Fexodus.desync.com%3A6969"],"infoHash":"02e92dfb704efb95c31c3936553331a4a7707efe","infoHashBuffer":{"type":"Buffer","data":[2,233,45,251,112,78,251,149,195,28,57,54,85,51,49,164,167,112,126,254]},"announce":[],"urlList":[]}}